<svg width="436" height="432" viewBox="0 0 436 432" fill="none" xmlns="http://www.w3.org/2000/svg">
<g clip-path="url(#clip0_95_2846)">
<g opacity="0.1" filter="url(#filter0_d_95_2846)">
<path d="M431 216C431 334.189 335.189 430 217 430C98.8111 430 3 334.189 3 216C3 97.8111 98.8111 2 217 2C335.189 2 431 97.8111 431 216Z" fill="#EC764B"/>
</g>
<path d="M39.143 326.876H390.567" stroke="#263238" stroke-linecap="round" stroke-linejoin="round"/>
<path d="M312.677 234.59L313.646 233.946" stroke="#263238" stroke-linecap="round" stroke-linejoin="round"/>
<path d="M315.562 232.66L345.334 212.709" stroke="#263238" stroke-linecap="round" stroke-linejoin="round" stroke-dasharray="2.98 2.98"/>
<path d="M346.296 212.066L347.266 211.415" stroke="#263238" stroke-linecap="round" stroke-linejoin="round"/>
<path d="M105.746 220.91L106.731 221.53" stroke="#263238" stroke-linecap="round" stroke-linejoin="round"/>
<path d="M108.787 222.824L124.185 232.559" stroke="#263238" stroke-linecap="round" stroke-linejoin="round" stroke-dasharray="3.13 3.13"/>
<path d="M125.217 233.21L126.194 233.83" stroke="#263238" stroke-linecap="round" stroke-linejoin="round"/>
<path d="M252.357 194.992L252.69 193.883" stroke="#263238" stroke-linecap="round" stroke-linejoin="round"/>
<path d="M253.342 191.675L272.603 126.701" stroke="#263238" stroke-linecap="round" stroke-linejoin="round" stroke-dasharray="2.96 2.96"/>
<path d="M272.929 125.6L273.263 124.484" stroke="#263238" stroke-linecap="round" stroke-linejoin="round"/>
<path d="M179.757 124.484L180.037 125.616" stroke="#263238" stroke-linecap="round" stroke-linejoin="round"/>
<path d="M180.611 127.879L196.319 190.233" stroke="#263238" stroke-linecap="round" stroke-linejoin="round" stroke-dasharray="3.02 3.02"/>
<path d="M196.598 191.364L196.885 192.488" stroke="#263238" stroke-linecap="round" stroke-linejoin="round"/>
<path d="M339.183 326.868H340.347C340.393 326.488 340.432 326.093 340.471 325.713" stroke="#263238" stroke-linecap="round" stroke-linejoin="round"/>
<path d="M340.68 323.388C340.944 320.117 341.078 316.81 341.084 313.467C340.826 281.212 327.822 250.365 304.903 227.648C281.985 204.93 251.009 192.183 218.726 192.183C186.442 192.183 155.467 204.93 132.548 227.648C109.629 250.365 96.6248 281.212 96.3677 313.467C96.3677 317.203 96.5358 320.898 96.872 324.551" stroke="#263238" stroke-linecap="round" stroke-linejoin="round" stroke-dasharray="3.01 3.01"/>
<path d="M96.9805 325.713L97.0969 326.868H98.2605" stroke="#263238" stroke-linecap="round" stroke-linejoin="round"/>
<path d="M100.603 326.876H338.019" stroke="#263238" stroke-linecap="round" stroke-linejoin="round" stroke-dasharray="3.02 3.02"/>
<path d="M354.232 232.079C372.937 232.079 388.1 216.928 388.1 198.24C388.1 179.551 372.937 164.4 354.232 164.4C335.527 164.4 320.364 179.551 320.364 198.24C320.364 216.928 335.527 232.079 354.232 232.079Z" fill="white" stroke="#263238" stroke-linecap="round" stroke-linejoin="round"/>
<path d="M329.362 187.149L353.922 169.004L378.303 187.149H329.362Z" fill="#263238" stroke="#263238" stroke-linecap="round" stroke-linejoin="round"/>
<path d="M378.303 187.148H329.362V218.701H378.303V187.148Z" fill="#263238" stroke="#263238" stroke-linecap="round" stroke-linejoin="round"/>
<path d="M372.073 173.484H335.591V205.757H372.073V173.484Z" fill="white" stroke="#263238" stroke-linecap="round" stroke-linejoin="round"/>
<path d="M329.362 187.148L353.836 202.921L378.303 187.148V218.701H329.362V187.148Z" fill="#EC764B" stroke="#263238" stroke-linecap="round" stroke-linejoin="round"/>
<path d="M342.278 181.684H365.076" stroke="#263238" stroke-linecap="round" stroke-linejoin="round"/>
<path d="M342.278 186.242H365.076" stroke="#263238" stroke-linecap="round" stroke-linejoin="round"/>
<path d="M342.278 190.799H365.076" stroke="#263238" stroke-linecap="round" stroke-linejoin="round"/>
<path d="M329.362 218.701L353.836 202.921L378.303 218.701" stroke="#263238" stroke-linecap="round" stroke-linejoin="round"/>
<path d="M281.276 125.066C299.98 125.066 315.144 109.916 315.144 91.2269C315.144 72.538 299.98 57.3877 281.276 57.3877C262.571 57.3877 247.408 72.538 247.408 91.2269C247.408 109.916 262.571 125.066 281.276 125.066Z" fill="white" stroke="#263238" stroke-linecap="round" stroke-linejoin="round"/>
<path d="M304.865 65.5493H254.071V104.078H304.865V65.5493Z" fill="#EC764B" stroke="#263238" stroke-linecap="round" stroke-linejoin="round"/>
<path d="M261.89 61.6353H258.834V67.9985H261.89V61.6353Z" fill="#263238" stroke="#263238" stroke-linecap="round" stroke-linejoin="round"/>
<path d="M280.996 61.6353H277.94V67.9985H280.996V61.6353Z" fill="#263238" stroke="#263238" stroke-linecap="round" stroke-linejoin="round"/>
<path d="M300.102 61.6353H297.046V67.9985H300.102V61.6353Z" fill="#263238" stroke="#263238" stroke-linecap="round" stroke-linejoin="round"/>
<path d="M263.977 73.0903H257.865V79.1978H263.977V73.0903Z" fill="white" stroke="#263238" stroke-linecap="round" stroke-linejoin="round"/>
<path d="M273.402 73.0903H267.289V79.1978H273.402V73.0903Z" fill="white" stroke="#263238" stroke-linecap="round" stroke-linejoin="round"/>
<path d="M282.827 73.0903H276.714V79.1978H282.827V73.0903Z" fill="white" stroke="#263238" stroke-linecap="round" stroke-linejoin="round"/>
<path d="M292.252 73.0903H286.139V79.1978H292.252V73.0903Z" fill="#263238" stroke="#263238" stroke-linecap="round" stroke-linejoin="round"/>
<path d="M301.677 73.0903H295.564V79.1978H301.677V73.0903Z" fill="white" stroke="#263238" stroke-linecap="round" stroke-linejoin="round"/>
<path d="M263.977 82.0034H257.865V88.1109H263.977V82.0034Z" fill="white" stroke="#263238" stroke-linecap="round" stroke-linejoin="round"/>
<path d="M273.402 82.0034H267.289V88.1109H273.402V82.0034Z" fill="#263238" stroke="#263238" stroke-linecap="round" stroke-linejoin="round"/>
<path d="M282.827 82.0034H276.714V88.1109H282.827V82.0034Z" fill="white" stroke="#263238" stroke-linecap="round" stroke-linejoin="round"/>
<path d="M292.252 82.0034H286.139V88.1109H292.252V82.0034Z" fill="white" stroke="#263238" stroke-linecap="round" stroke-linejoin="round"/>
<path d="M301.677 82.0034H295.564V88.1109H301.677V82.0034Z" fill="white" stroke="#263238" stroke-linecap="round" stroke-linejoin="round"/>
<path d="M263.977 90.9092H257.865V97.0167H263.977V90.9092Z" fill="white" stroke="#263238" stroke-linecap="round" stroke-linejoin="round"/>
<path d="M273.402 90.9092H267.289V97.0167H273.402V90.9092Z" fill="white" stroke="#263238" stroke-linecap="round" stroke-linejoin="round"/>
<path d="M282.827 90.9092H276.714V97.0167H282.827V90.9092Z" fill="white" stroke="#263238" stroke-linecap="round" stroke-linejoin="round"/>
<path d="M292.252 90.9092H286.139V97.0167H292.252V90.9092Z" fill="#263238" stroke="#263238" stroke-linecap="round" stroke-linejoin="round"/>
<path d="M301.677 90.9092H295.564V97.0167H301.677V90.9092Z" fill="white" stroke="#263238" stroke-linecap="round" stroke-linejoin="round"/>
<path d="M302.437 131.011C312.145 131.011 320.015 123.147 320.015 113.448C320.015 103.748 312.145 95.8848 302.437 95.8848C292.729 95.8848 284.86 103.748 284.86 113.448C284.86 123.147 292.729 131.011 302.437 131.011Z" fill="#EC764B" stroke="#263238" stroke-linecap="round" stroke-linejoin="round"/>
<path d="M302.437 128.848C310.95 128.848 317.851 121.953 317.851 113.448C317.851 104.942 310.95 98.0474 302.437 98.0474C293.925 98.0474 287.024 104.942 287.024 113.448C287.024 121.953 293.925 128.848 302.437 128.848Z" fill="white" stroke="#263238" stroke-linecap="round" stroke-linejoin="round"/>
<path d="M305.494 119.044L302.437 113.448H290.716" fill="white"/>
<path d="M305.494 119.044L302.437 113.448H290.716" stroke="#263238" stroke-linecap="round" stroke-linejoin="round"/>
<path d="M172.396 125.066C191.101 125.066 206.264 109.916 206.264 91.2269C206.264 72.538 191.101 57.3877 172.396 57.3877C153.691 57.3877 138.528 72.538 138.528 91.2269C138.528 109.916 153.691 125.066 172.396 125.066Z" fill="white" stroke="#263238" stroke-linecap="round" stroke-linejoin="round"/>
<path d="M190.206 63.6812H141.949C140.78 63.6812 139.66 64.145 138.833 64.9706C138.007 65.7962 137.543 66.916 137.543 68.0836V94.6682L145.3 86.5765H190.206C190.787 86.5786 191.362 86.4663 191.898 86.246C192.435 86.0258 192.923 85.702 193.335 85.2931C193.746 84.8842 194.073 84.3982 194.296 83.8631C194.519 83.3279 194.635 82.754 194.636 82.1742V68.0836C194.636 67.5035 194.521 66.9291 194.298 66.3935C194.075 65.8578 193.749 65.3715 193.337 64.9624C192.925 64.5533 192.437 64.2295 191.9 64.0096C191.362 63.7898 190.787 63.6781 190.206 63.6812Z" fill="#EC764B" stroke="#263238" stroke-linecap="round" stroke-linejoin="round"/>
<path d="M150.521 80.1046C153.391 80.1046 155.718 77.7796 155.718 74.9117C155.718 72.0437 153.391 69.7188 150.521 69.7188C147.65 69.7188 145.323 72.0437 145.323 74.9117C145.323 77.7796 147.65 80.1046 150.521 80.1046Z" fill="white" stroke="#263238" stroke-linecap="round" stroke-linejoin="round"/>
<path d="M150.521 76.2449C151.947 76.2449 153.104 75.0894 153.104 73.664C153.104 72.2385 151.947 71.083 150.521 71.083C149.094 71.083 147.938 72.2385 147.938 73.664C147.938 75.0894 149.094 76.2449 150.521 76.2449Z" fill="#263238" stroke="#263238" stroke-linecap="round" stroke-linejoin="round"/>
<path d="M150.521 80.0972C151.211 80.0999 151.895 79.9641 152.532 79.6978C153.169 79.4315 153.746 79.0402 154.229 78.547C153.756 78.0361 153.182 77.6284 152.544 77.3495C151.906 77.0707 151.217 76.9268 150.521 76.9268C149.824 76.9268 149.135 77.0707 148.497 77.3495C147.859 77.6284 147.285 78.0361 146.813 78.547C147.296 79.0391 147.873 79.4298 148.51 79.696C149.147 79.9621 149.83 80.0986 150.521 80.0972Z" fill="#263238" stroke="#263238" stroke-linecap="round" stroke-linejoin="round"/>
<path d="M159.721 71.4165H184.668" stroke="#263238" stroke-linecap="round" stroke-linejoin="round"/>
<path d="M159.721 75.3457H184.668" stroke="#263238" stroke-linecap="round" stroke-linejoin="round"/>
<path d="M159.721 79.2754H184.668" stroke="#263238" stroke-linecap="round" stroke-linejoin="round"/>
<path d="M151.676 90.3511H199.934C201.102 90.3511 202.223 90.8149 203.049 91.6405C203.876 92.4661 204.34 93.5858 204.34 94.7534V121.346L196.583 113.246H151.676C150.508 113.246 149.387 112.783 148.561 111.957C147.735 111.131 147.27 110.012 147.27 108.844V94.7534C147.27 93.5858 147.735 92.4661 148.561 91.6405C149.387 90.8149 150.508 90.3511 151.676 90.3511Z" fill="#EC764B" stroke="#263238" stroke-linecap="round" stroke-linejoin="round"/>
<path d="M165.158 101.163C165.16 102.191 164.856 103.195 164.286 104.05C163.716 104.905 162.905 105.572 161.955 105.966C161.006 106.361 159.961 106.465 158.952 106.265C157.943 106.066 157.016 105.572 156.289 104.846C155.561 104.12 155.065 103.194 154.864 102.187C154.663 101.179 154.766 100.135 155.159 99.1855C155.552 98.2362 156.218 97.4247 157.073 96.8537C157.928 96.2828 158.933 95.978 159.961 95.978C161.338 95.978 162.659 96.5241 163.633 97.4963C164.608 98.4684 165.156 99.7873 165.158 101.163Z" fill="white" stroke="#263238" stroke-linecap="round" stroke-linejoin="round"/>
<path d="M159.946 102.504C161.372 102.504 162.529 101.349 162.529 99.9232C162.529 98.4978 161.372 97.3423 159.946 97.3423C158.519 97.3423 157.362 98.4978 157.362 99.9232C157.362 101.349 158.519 102.504 159.946 102.504Z" fill="#263238" stroke="#263238" stroke-linecap="round" stroke-linejoin="round"/>
<path d="M159.946 106.356C160.636 106.358 161.32 106.222 161.956 105.955C162.593 105.689 163.17 105.298 163.654 104.806C163.182 104.293 162.609 103.883 161.971 103.603C161.332 103.323 160.643 103.178 159.946 103.178C159.248 103.178 158.559 103.323 157.921 103.603C157.282 103.883 156.709 104.293 156.238 104.806C156.721 105.298 157.298 105.689 157.935 105.955C158.572 106.221 159.255 106.357 159.946 106.356Z" fill="#263238" stroke="#263238" stroke-linecap="round" stroke-linejoin="round"/>
<path d="M169.146 97.6753H194.085" stroke="#263238" stroke-linecap="round" stroke-linejoin="round"/>
<path d="M169.146 101.605H194.085" stroke="#263238" stroke-linecap="round" stroke-linejoin="round"/>
<path d="M169.146 105.535H194.085" stroke="#263238" stroke-linecap="round" stroke-linejoin="round"/>
<path d="M80.6827 232.079C99.3874 232.079 114.551 216.928 114.551 198.24C114.551 179.551 99.3874 164.4 80.6827 164.4C61.978 164.4 46.8149 179.551 46.8149 198.24C46.8149 216.928 61.978 232.079 80.6827 232.079Z" fill="white" stroke="#263238" stroke-linecap="round" stroke-linejoin="round"/>
<path d="M80.6827 232.078C87.8536 232.085 94.8399 229.807 100.626 225.576L86.2834 215.407L66.5569 210.105L54.797 220.057C57.9724 223.827 61.9352 226.856 66.407 228.933C70.8789 231.01 75.7514 232.083 80.6827 232.078Z" fill="#EC764B" stroke="#263238" stroke-linecap="round" stroke-linejoin="round"/>
<path d="M97.3064 172.694C97.3064 172.694 102.612 181.94 102.201 182.886C101.874 183.819 101.615 184.775 101.425 185.746C101.425 185.746 106.592 192.946 106.181 193.76C105.769 194.574 102.783 197.434 102.783 197.434C102.783 197.434 103.737 210.346 103.194 211.028C102.651 211.71 100.603 212.516 99.5172 212.656C98.4311 212.795 88.2305 211.702 88.2305 211.702L85.7792 226.793L66.5569 210.075L68.1937 204.773V200.968L63.1592 185.467C63.1592 185.467 64.3849 176.088 75.5707 172.415C86.7566 168.741 97.3064 172.694 97.3064 172.694Z" fill="white" stroke="#263238" stroke-linecap="round" stroke-linejoin="round"/>
<path d="M78.278 191.45C78.278 191.45 76.649 186.288 72.1576 187.241C67.6662 188.195 67.5033 191.721 68.2169 193.899C68.8427 195.569 69.7133 197.136 70.8001 198.549L68.1936 200.968C68.1936 200.968 60.708 183.025 59.079 179.622C57.45 176.22 57.0388 173.647 61.4061 170.516C65.7734 167.384 91.4652 165.354 93.9009 164.253C96.3367 163.152 97.9812 165.206 98.1209 168.601C98.2605 171.996 97.3451 172.678 97.3451 172.678C92.7242 171.647 87.9274 171.695 83.3279 172.817C76.1215 174.716 76.6645 176.212 78.1616 177.468C79.6588 178.723 82.5134 179.793 81.6989 181.002C80.8844 182.211 77.8901 184.397 78.022 185.761C78.1539 187.125 80.7448 190.411 79.9303 191.062C79.7076 191.257 79.4406 191.394 79.1525 191.462C78.8644 191.53 78.5641 191.525 78.278 191.45Z" fill="#263238" stroke="#263238" stroke-linecap="round" stroke-linejoin="round"/>
<path d="M95.8093 189.412C96.4862 189.412 97.0349 188.346 97.0349 187.032C97.0349 185.718 96.4862 184.653 95.8093 184.653C95.1324 184.653 94.5836 185.718 94.5836 187.032C94.5836 188.346 95.1324 189.412 95.8093 189.412Z" fill="#263238"/>
<path d="M92.0005 182.854C92.0005 182.854 95.3981 178.506 100.021 181.638" stroke="#263238" stroke-linecap="round" stroke-linejoin="round"/>
<path d="M98.7957 200.681L91.3178 198.1C91.3178 198.1 92.0004 203.944 93.7691 204.347C95.5377 204.75 98.7957 200.681 98.7957 200.681Z" stroke="#263238" stroke-linecap="round" stroke-linejoin="round"/>
<path d="M78.6566 191.591L67.6058 194.868L75.5005 221.446L86.5512 218.169L78.6566 191.591Z" fill="#263238" stroke="#263238" stroke-linecap="round" stroke-linejoin="round"/>
<path d="M80.6827 232.079C82.7639 232.08 84.841 231.894 86.8885 231.521C87.2565 230.386 87.4755 229.208 87.5401 228.017C87.5401 225.692 85.6318 220.677 85.9033 220.135C86.1748 219.592 89.7121 207.083 89.0062 205.455C88.3003 203.828 85.4689 208.432 85.4689 208.432C86.1841 206.97 86.6432 205.397 86.8264 203.781C86.966 201.603 85.3293 200.929 84.4993 202.425C83.6692 203.921 78.6503 213.973 78.9219 212.346C79.1934 210.718 82.8703 200.789 82.7306 199.294C82.591 197.798 80.8301 198.208 80.1475 199.976C79.4649 201.743 73.7556 214.113 73.7556 214.113C73.6236 213.578 73.5765 213.026 73.6159 212.477C73.7556 212.074 74.8416 207.315 75.3846 205.82C75.9276 204.324 76.6102 202.557 76.3387 201.061C76.0672 199.565 75.9276 199.976 74.9734 200.386C74.0193 200.797 68.7212 212.206 68.31 213.973C67.9765 215.438 73.6159 227.545 75.5552 231.645C77.2508 231.92 78.965 232.065 80.6827 232.079Z" fill="white" stroke="#263238" stroke-linecap="round" stroke-linejoin="round"/>
<path d="M85.4689 208.447L81.6602 218.368" stroke="#263238" stroke-linecap="round" stroke-linejoin="round"/>
<path d="M78.9373 212.384L77.1687 216.872" stroke="#263238" stroke-linecap="round" stroke-linejoin="round"/>
<path d="M257.469 155.913C257.469 155.913 259.548 140.823 251.527 132.375C243.506 123.927 209.467 123.927 199.274 133.026C189.082 142.125 192.231 155.898 192.231 155.898" stroke="#263238" stroke-width="2" stroke-linecap="round" stroke-linejoin="round"/>
<path d="M206.512 129.375C206.512 129.375 194.589 136.56 193.767 142.931C192.945 149.302 195.823 157.308 196.024 157.928C196.226 158.548 197.056 163.059 198.289 168.004C198.771 170.256 199.459 172.459 200.345 174.584C200.345 174.584 190.68 180.785 191.913 189.574C193.146 198.363 202.191 199.433 201.997 202.518C201.803 205.602 198.119 208.889 199.53 213.198C200.942 217.507 207.544 221.212 212.066 222.235C216.589 223.258 247.02 223.266 250.511 221.414C254.001 219.561 257.919 214.841 257.709 210.943C257.5 207.044 255.863 204.37 256.476 202.928C257.089 201.487 264.908 199.053 264.908 188.753C264.908 178.452 254.42 174.801 252.776 172.732C251.131 170.663 254.009 167.183 254.42 155.89C254.831 144.597 254.009 134.32 242.498 128.763C230.986 123.206 219.055 123.221 212.888 125.066C206.721 126.91 206.923 128.6 206.512 129.375Z" fill="#263238" stroke="#263238" stroke-linecap="round" stroke-linejoin="round"/>
<path d="M253.722 222.057C242.637 216.066 238.596 205.781 243.529 193.682L228.131 193.899L212.741 193.705C213.943 193.705 214.192 204.138 214.137 204.983C213.618 213.276 209.483 218.314 202.548 222.08C197.351 224.902 171.76 231.614 171.76 231.614L190.036 326.473H267.289L284.503 231.59C284.503 231.59 258.927 224.878 253.722 222.057Z" fill="white" stroke="#263238" stroke-linecap="round" stroke-linejoin="round"/>
<path d="M259.129 235.458H194.659V326.473H259.129V235.458Z" fill="white" stroke="#263238" stroke-linecap="round" stroke-linejoin="round"/>
<path d="M198.902 159.781C198.902 159.781 199.934 180.328 204.247 186.691C208.56 193.054 219.459 204.153 222.957 204.773C226.456 205.393 231.211 206.393 234.058 204.362C236.905 202.332 248.021 191.008 249.681 181.351C251.341 171.694 251.186 158.525 249.89 158.758C237.347 161.013 225.331 156.161 222.337 148.488C221.466 146.242 220.02 144.263 218.144 142.749C216.269 141.236 214.028 140.24 211.647 139.862C211.647 139.862 208.156 158.959 198.902 159.781Z" fill="white" stroke="#263238" stroke-linecap="round" stroke-linejoin="round"/>
<path d="M223.128 181.824C223.128 181.824 225.804 183.877 228.473 183.467C231.141 183.056 231.575 181.614 231.575 181.614" stroke="#263238" stroke-linecap="round" stroke-linejoin="round"/>
<path d="M219.971 189.001C222.327 190.361 225.015 191.042 227.736 190.97C230.456 190.897 233.103 190.074 235.384 188.59" stroke="#263238" stroke-linecap="round" stroke-linejoin="round"/>
<path d="M205.496 163.99C205.496 163.99 210.228 158.239 219.684 162.137" stroke="#263238" stroke-width="2" stroke-linecap="round" stroke-linejoin="round"/>
<path d="M231.94 162.951C231.94 162.951 238.146 158.634 245.903 163.974" stroke="#263238" stroke-width="2" stroke-linecap="round" stroke-linejoin="round"/>
<path d="M284.503 231.59C284.503 231.59 320.612 312.918 320.341 316.723C320.069 320.529 296.674 325.427 294.494 323.52C292.314 321.614 274.325 284.651 274.325 284.651L284.503 231.59Z" fill="#EC764B" stroke="#263238" stroke-linecap="round" stroke-linejoin="round"/>
<path d="M287.101 245.65L276.745 275.699" stroke="#263238" stroke-linecap="round" stroke-linejoin="round"/>
<path d="M286.706 257.989L275.551 279.675" stroke="#263238" stroke-linecap="round" stroke-linejoin="round"/>
<path d="M171.76 231.59C171.76 231.59 153.856 316.165 154.942 317.545C156.028 318.924 158.208 323.52 165.283 324.605C169.646 325.247 174.096 324.97 178.346 323.792L185.149 300.958L171.76 231.59Z" fill="#EC764B" stroke="#263238" stroke-linecap="round" stroke-linejoin="round"/>
<path d="M170.992 250.223L179.556 272.118" stroke="#263238" stroke-linecap="round" stroke-linejoin="round"/>
<path d="M168.199 257.586L174.971 266.941" stroke="#263238" stroke-linecap="round" stroke-linejoin="round"/>
<path d="M166.144 300.951C166.144 300.951 174.583 301.47 179.098 305.229" stroke="#263238" stroke-linecap="round" stroke-linejoin="round"/>
<path d="M216.239 326.473L208.358 217.965C206.611 219.581 204.657 220.96 202.548 222.065C197.351 224.886 171.76 231.598 171.76 231.598L190.036 326.473H216.239Z" fill="#EC764B" stroke="#263238" stroke-linecap="round" stroke-linejoin="round"/>
<path d="M194.519 244.015C195.652 254.307 197.196 267.832 198.739 279.76C200.678 293.944 205.592 307.56 213.16 319.715" stroke="#263238" stroke-linecap="round" stroke-linejoin="round"/>
<path d="M192.758 227.576C192.758 227.576 193.154 231.451 193.798 237.442" stroke="#263238" stroke-linecap="round" stroke-linejoin="round"/>
<path d="M249.712 219.476L236.897 326.473H267.289L284.503 231.59C284.503 231.59 258.904 224.878 253.722 222.057C252.317 221.307 250.976 220.444 249.712 219.476Z" fill="#EC764B" stroke="#263238" stroke-linecap="round" stroke-linejoin="round"/>
<path d="M262.542 239C261.394 249.587 259.587 265.771 257.771 279.76C255.833 293.944 250.919 307.56 243.351 319.715" stroke="#263238" stroke-linecap="round" stroke-linejoin="round"/>
<path d="M263.76 227.576C263.76 227.576 263.488 230.195 263.031 234.481" stroke="#263238" stroke-linecap="round" stroke-linejoin="round"/>
<path d="M314.973 312.987C314.973 312.987 314.678 309.926 310.163 305.237C305.649 300.548 295.425 299.85 292.679 301.749C289.933 303.648 253.071 315.281 253.071 315.281L251.814 326.132C251.814 326.132 313.515 328.372 315.989 326.907C318.464 325.442 322.544 320.939 321.528 317.878C320.811 315.906 319.667 314.117 318.177 312.639" fill="#EC764B"/>
<path d="M314.973 312.987C314.973 312.987 314.678 309.926 310.163 305.237C305.649 300.548 295.425 299.85 292.679 301.749C289.933 303.648 253.071 315.281 253.071 315.281L251.814 326.132C251.814 326.132 313.515 328.372 315.989 326.907C318.464 325.442 322.544 320.939 321.528 317.878C320.811 315.906 319.667 314.117 318.177 312.639" stroke="#263238" stroke-linecap="round" stroke-linejoin="round"/>
<path d="M256.406 317.204C255.39 315.894 246.648 307.601 246.648 307.601L244.755 310.073L240.527 305.144L239.294 306.376L232.312 306.926L232.087 306.872V306.949L229.59 307.143L233.096 314.119L229.892 313.972C229.892 313.972 224.648 313.685 221.297 312.08C217.946 310.476 215.029 308.585 214.013 308.438C212.997 308.29 212.12 311.205 214.448 314.553C216.775 317.901 224.959 318.087 224.959 318.087C224.959 318.087 226.588 320.8 232.413 322.985C234.129 323.623 235.959 323.899 237.786 323.795C239.614 323.691 241.4 323.209 243.033 322.381C244.485 323.529 246.108 324.444 247.842 325.094C252.776 326.737 255.599 326.465 257.671 323.838C259.742 321.211 257.469 318.49 256.406 317.204Z" fill="white" stroke="#263238" stroke-linecap="round" stroke-linejoin="round"/>
<path d="M233.042 304.748C233.042 304.748 228.635 303.694 227.542 304.601C226.448 305.508 223.547 314.429 223.826 315.188C224.105 315.948 226.153 316.397 227.123 315.188C227.58 314.615 228.969 311.786 230.055 310.158C230.609 309.24 231.323 308.428 232.165 307.763L233.042 304.748Z" fill="white" stroke="#263238" stroke-linecap="round" stroke-linejoin="round"/>
<path d="M235.656 303.376C235.656 303.376 233.173 302.361 232.305 304.252C231.436 306.143 229.822 318.203 230.699 318.978C231.575 319.753 232.592 320.428 233.173 318.397C233.755 316.366 235.943 308.321 236.672 306.166C237.401 304.012 237.106 303.376 235.656 303.376Z" fill="white" stroke="#263238" stroke-linecap="round" stroke-linejoin="round"/>
<path d="M237.339 304.539C237.339 304.539 235.089 319.568 236.214 320.234C237.339 320.901 238.378 319.583 239.007 318.382C239.635 317.18 242.575 307.864 242.451 305.865C242.327 303.865 239.208 302.935 237.339 304.539Z" fill="white" stroke="#263238" stroke-linecap="round" stroke-linejoin="round"/>
<path d="M245.771 306.291C245.771 306.291 243.731 305.996 242.854 307.306C241.978 308.616 239.069 319.823 240.232 320.552C241.396 321.28 245.918 312.111 246.648 310.073C247.377 308.034 247.229 307.019 245.771 306.291Z" fill="white" stroke="#263238" stroke-linecap="round" stroke-linejoin="round"/>
<path d="M164.383 299.447C165.773 300.232 166.903 301.407 167.633 302.826C168.804 305.151 173.358 310.755 173.358 310.755C173.358 310.755 177.903 311.406 178.431 311.15C178.958 310.894 177.655 319.722 177.655 319.722C177.655 319.722 174.009 322.319 170.627 322.582C167.245 322.846 159.573 317.157 159.573 317.157C159.573 317.157 155.695 318.327 153.98 317.676C152.266 317.025 147.48 311.7 147.48 311.7L160.752 303.764L164.383 299.447Z" fill="white" stroke="#263238" stroke-linecap="round" stroke-linejoin="round"/>
<path d="M177.795 309.066C177.795 309.066 174.932 321.932 175.84 322.714C176.185 322.991 176.591 323.179 177.025 323.263C177.459 323.346 177.906 323.323 178.329 323.195C178.752 323.066 179.136 322.837 179.45 322.526C179.764 322.216 179.997 321.833 180.13 321.412C181.177 318.948 183.512 313.096 183.124 311.275C182.736 309.453 179.897 308.027 177.795 309.066Z" fill="white" stroke="#263238" stroke-linecap="round" stroke-linejoin="round"/>
<path d="M150.218 308.546C150.218 308.546 145.797 308.678 144.889 310.623C143.981 312.568 140.335 317.382 141.375 318.033C142.414 318.684 144.757 315.436 145.665 314.157C146.572 312.878 149.83 311.832 149.83 311.832L150.218 308.546Z" fill="white" stroke="#263238" stroke-linecap="round" stroke-linejoin="round"/>
<path d="M154.772 305.035C154.772 305.035 150.218 305.95 149.342 308.027C148.465 310.104 146.611 317.645 146.867 319.723C147.123 321.8 148.038 321.931 148.946 320.374C149.854 318.816 152.204 311.67 152.328 311.274C152.452 310.879 153.763 307.895 153.763 307.895L154.772 305.035Z" fill="white" stroke="#263238" stroke-linecap="round" stroke-linejoin="round"/>
<path d="M158.953 301.919C158.953 301.919 154.407 302.307 153.755 304.392C153.104 306.477 153.104 319.467 153.887 320.374C154.671 321.28 156.354 320.637 156.742 319.335C157.13 318.033 157.657 309.848 157.789 309.329C158.252 308.269 158.77 307.235 159.341 306.229L158.953 301.919Z" fill="white" stroke="#263238" stroke-linecap="round" stroke-linejoin="round"/>
<path d="M165.158 302.702C165.29 303.221 163.343 309.848 163.343 309.848C163.343 309.848 163.863 314.917 163.863 316.738C163.863 318.56 162.692 319.335 161.536 319.064C160.38 318.792 159.457 312.956 159.061 311.662C158.666 310.367 158.805 303.469 158.929 301.911C159.054 300.354 164.398 299.439 164.398 299.439C164.766 299.499 165.113 299.65 165.408 299.877C165.703 300.104 165.937 300.401 166.089 300.741" fill="white"/>
<path d="M165.158 302.702C165.29 303.221 163.343 309.848 163.343 309.848C163.343 309.848 163.863 314.917 163.863 316.738C163.863 318.56 162.692 319.335 161.536 319.064C160.38 318.792 159.457 312.956 159.061 311.662C158.666 310.367 158.805 303.469 158.929 301.911C159.054 300.354 164.398 299.439 164.398 299.439C164.766 299.499 165.113 299.65 165.408 299.877C165.703 300.104 165.937 300.401 166.089 300.741" stroke="#263238" stroke-linecap="round" stroke-linejoin="round"/>
<path d="M255.18 177.491C255.18 177.491 254.8 187.861 248.199 200.068C246.458 203.363 243.995 206.222 240.993 208.431" stroke="#7D7D7D" stroke-width="3" stroke-linecap="round" stroke-linejoin="round"/>
<path d="M235.307 213.857C234.764 213.856 234.238 213.665 233.821 213.317C233.404 212.969 233.122 212.487 233.023 211.953C232.925 211.42 233.016 210.869 233.282 210.395C233.547 209.922 233.97 209.556 234.477 209.361C236.308 208.662 238.042 207.729 239.635 206.587C240.136 206.256 240.746 206.131 241.337 206.238C241.928 206.346 242.454 206.678 242.806 207.165C243.158 207.651 243.307 208.255 243.224 208.849C243.14 209.443 242.83 209.983 242.358 210.354C240.443 211.736 238.357 212.864 236.152 213.71C235.882 213.811 235.595 213.861 235.307 213.857Z" fill="#EC764B" stroke="#263238" stroke-linecap="round" stroke-linejoin="round"/>
<path d="M263.341 168.454C263.085 175.251 260.052 180.653 256.569 180.522C248.455 180.219 250.464 174.778 250.712 167.981C250.961 161.184 250.123 155.634 257.492 155.913C260.975 156.037 263.597 161.657 263.341 168.454Z" fill="#EC764B" stroke="#263238" stroke-linecap="round" stroke-linejoin="round"/>
<path d="M255.312 156.037C250.309 156.897 250.945 161.943 250.72 167.981C250.495 173.895 248.951 178.777 253.885 180.149L255.312 156.037Z" fill="#737373" stroke="#263238" stroke-linecap="round" stroke-linejoin="round"/>
<path d="M187.166 168.772C187.825 175.538 191.176 180.754 194.643 180.398C202.726 179.622 200.399 174.298 199.74 167.532C199.081 160.765 199.593 155.169 192.254 155.906C188.787 156.239 186.506 161.998 187.166 168.772Z" fill="#EC764B" stroke="#263238" stroke-linecap="round" stroke-linejoin="round"/>
<path d="M197.188 179.925C202.176 178.289 200.291 173.476 199.74 167.524C199.135 161.37 199.507 156.192 194.077 155.836L197.188 179.925Z" fill="#737373" stroke="#263238" stroke-linecap="round" stroke-linejoin="round"/>
<path d="M216.457 168.617C216.457 170.237 215.363 171.554 214.013 171.554C212.663 171.554 211.577 170.237 211.577 168.617C211.577 166.997 212.663 165.679 214.013 165.679C215.363 165.679 216.457 166.997 216.457 168.617Z" fill="#263238"/>
<path d="M239.007 168.617C239.007 170.237 237.913 171.554 236.563 171.554C235.213 171.554 234.128 170.237 234.128 168.617C234.128 166.997 235.221 165.679 236.563 165.679C237.905 165.679 239.007 166.997 239.007 168.617Z" fill="#263238"/>
<path d="M244.499 316.351C244.499 316.351 244.708 321.366 249.099 323.869" stroke="#263238" stroke-linecap="round" stroke-linejoin="round"/>
<path d="M200.485 323.528H92.3728L82.3815 254.982H190.501L200.485 323.528Z" fill="#737373" stroke="#263238" stroke-linecap="round" stroke-linejoin="round"/>
<path d="M92.365 323.529H200.485L195.21 287.302C177.826 285.83 148.31 285.923 133.54 300.905C121.237 313.391 104.257 318.15 91.8453 319.932L92.365 323.529Z" fill="#263238" stroke="#263238" stroke-linecap="round" stroke-linejoin="round"/>
<path d="M242.04 323.528H92.3651V326.869H242.04V323.528Z" fill="#737373" stroke="#263238" stroke-linecap="round" stroke-linejoin="round"/>
<path d="M151.653 345.532L154.632 351.57L161.303 352.539L156.478 357.236L157.611 363.87L151.653 360.739L145.688 363.87L146.82 357.236L141.995 352.539L148.667 351.57L151.653 345.532Z" fill="#EC764B" stroke="#263238" stroke-linecap="round" stroke-linejoin="round"/>
<path d="M181.161 345.532L184.14 351.57L190.811 352.539L185.986 357.236L187.127 363.87L181.161 360.739L175.196 363.87L176.337 357.236L171.504 352.539L178.175 351.57L181.161 345.532Z" fill="#EC764B" stroke="#263238" stroke-linecap="round" stroke-linejoin="round"/>
<path d="M210.67 345.532L213.649 351.57L220.32 352.539L215.495 357.236L216.635 363.87L210.67 360.739L204.705 363.87L205.845 357.236L201.02 352.539L207.683 351.57L210.67 345.532Z" fill="#EC764B" stroke="#263238" stroke-linecap="round" stroke-linejoin="round"/>
<path d="M240.178 345.532L243.157 351.57L249.828 352.539L245.003 357.236L246.143 363.87L240.178 360.739L234.213 363.87L235.353 357.236L230.528 352.539L237.192 351.57L240.178 345.532Z" fill="#EC764B" stroke="#263238" stroke-linecap="round" stroke-linejoin="round"/>
<path d="M269.686 345.532L272.665 351.57L279.336 352.539L274.511 357.236L275.652 363.87L269.686 360.739L263.721 363.87L264.861 357.236L260.036 352.539L266.7 351.57L269.686 345.532Z" fill="#EC764B" stroke="#263238" stroke-linecap="round" stroke-linejoin="round"/>
</g>
<defs>
<filter id="filter0_d_95_2846" x="-1" y="2" width="436" height="436" filterUnits="userSpaceOnUse" color-interpolation-filters="sRGB">
<feFlood flood-opacity="0" result="BackgroundImageFix"/>
<feColorMatrix in="SourceAlpha" type="matrix" values="0 0 0 0 0 0 0 0 0 0 0 0 0 0 0 0 0 0 127 0" result="hardAlpha"/>
<feOffset dy="4"/>
<feGaussianBlur stdDeviation="2"/>
<feComposite in2="hardAlpha" operator="out"/>
<feColorMatrix type="matrix" values="0 0 0 0 0 0 0 0 0 0 0 0 0 0 0 0 0 0 0.25 0"/>
<feBlend mode="normal" in2="BackgroundImageFix" result="effect1_dropShadow_95_2846"/>
<feBlend mode="normal" in="SourceGraphic" in2="effect1_dropShadow_95_2846" result="shape"/>
</filter>
<clipPath id="clip0_95_2846">
<rect width="436" height="432" fill="white"/>
</clipPath>
</defs>
</svg>
