<svg width="500" height="358" viewBox="0 0 500 358" fill="none" xmlns="http://www.w3.org/2000/svg">
<g clip-path="url(#clip0_75_353)">
<path opacity="0.15" d="M386.931 334.058C462.559 258.43 462.559 135.812 386.931 60.1841C311.302 -15.4441 188.685 -15.4441 113.057 60.1841C37.4285 135.812 37.4285 258.43 113.057 334.058C188.685 409.686 311.302 409.686 386.931 334.058Z" fill="#70C0CA"/>
<path d="M285.75 108.89C286.51 105.88 292.02 98.9895 295.24 101.74C297.88 104 296.26 111.32 295.49 114.09C294.4 117.98 292.66 121.92 289.52 124.54C288.19 125.64 286.23 126.89 284.39 126.43C282.08 125.84 282.43 122.5 282.41 120.42C282.39 117.56 282.7 114.57 283.55 111.86C284.32 109.42 285.99 107.65 286.85 105.46" fill="#F79B79"/>
<path d="M210.57 106.13C209.18 103.62 207.52 98.1604 203.71 98.5904C199.63 99.0404 199.69 107.37 200.15 110.29C200.73 113.95 202.42 119.35 205.68 121.65C207.25 122.76 210.22 123.5 212.08 122.85C214.58 121.97 214.79 119.2 215 116.85C215.43 111.98 213.08 106.68 209.94 103.02" fill="#F79B79"/>
<path d="M293.07 101.14C290.2 101.58 286.86 105.83 285.92 108.35L286.85 105.44C285.99 107.63 284.32 109.4 283.55 111.84C282.7 114.55 282.39 117.55 282.41 120.4C282.43 122.49 282.08 125.83 284.39 126.41C285.63 126.72 286.92 126.26 288.04 125.58C290.17 117.55 291.91 109.39 293.07 101.14Z" fill="#E2A379"/>
<path d="M209.93 103.01L210.56 106.13C209.56 104.32 208.41 101 206.43 99.4297C206.42 101.15 206.43 102.86 206.47 104.58C206.6 110.17 207.06 115.75 207.81 121.29C207.87 121.77 207.95 122.24 208.02 122.72C209.4 123.12 210.93 123.24 212.06 122.84C214.56 121.96 214.77 119.19 214.98 116.84C215.42 111.98 213.07 106.68 209.93 103.01Z" fill="#E2A379"/>
<path d="M212.19 169.81C212.19 169.81 173.02 191.33 158.67 200.98C144.33 210.64 163.64 339.46 163.08 349.67C162.53 359.88 160.32 423.99 160.32 423.99H334.39C334.39 423.99 322.25 307.18 321.98 290.08C321.7 272.98 321.7 190.49 321.7 190.49L280.6 169.25L248.32 277.11L212.19 169.81Z" fill="#EA5F33"/>
<path d="M304.93 353.64C292.76 357.63 280.58 361.71 268.13 364.74C255.67 367.78 242.87 369.77 230.02 369.49C223.43 369.35 216.86 368.52 210.33 367.72C203.73 366.91 197.15 366 190.56 365.12C181.27 363.89 171.92 362.74 162.56 362.15C161.71 383.99 160.33 423.99 160.33 423.99H174.03C176.16 415.11 181.06 405.28 192.33 403.11C213.85 398.95 302.67 387.06 313.16 404.3C316.51 409.81 319.13 416.9 321.14 423.99H334.4C334.4 423.99 330.05 382.15 326.5 344.89C319.59 348.46 312.25 351.24 304.93 353.64Z" fill="#E9E9EB"/>
<path d="M217.29 143.47C217.29 143.47 216.46 170.57 217.08 171.81C217.7 173.05 229.7 192.29 251.63 188.57C273.56 184.85 274.39 169.12 274.39 169.12L272.73 142.02C272.73 142.02 260.73 147.61 245.83 146.16C230.95 144.71 217.29 143.47 217.29 143.47Z" fill="#F79B79"/>
<path d="M246.67 170.09C259.17 168.7 268.12 161.79 273.59 155.97L272.74 142.02C272.74 142.02 260.74 147.61 245.84 146.16C230.94 144.71 217.29 143.47 217.29 143.47C217.29 143.47 217.11 149.23 216.99 155.57C222.46 162.5 232.51 171.66 246.67 170.09Z" fill="#CD7F62"/>
<path d="M210.22 84.77C210.22 84.77 207.96 127.34 214.25 139.87C220.54 152.39 235.79 161.88 246.24 163.52C256.7 165.16 270.22 156.66 276.96 147.43C283.69 138.2 289.9 106.31 290.85 94.14C291.79 81.97 284.14 60.21 274.05 53.82C263.96 47.43 223.37 51.76 215.65 57.59C207.93 63.42 210.22 84.77 210.22 84.77Z" fill="#F8A080"/>
<path d="M211.7 90.9201C211.49 94.2401 212.44 97.8701 212.74 101.2C213.13 105.51 213.63 109.82 214.16 114.09C214.85 119.67 214.99 124.02 216.37 129.45C218.32 137.14 226.82 132.35 231.97 129.61C244.8 122.78 259.07 123.61 270.14 130.25C271.79 131.24 274.33 134.13 276.54 133.54C278.69 132.97 280.36 129.06 280.96 127.13C282.89 120.89 285.24 103.75 285.66 96.51C285.83 93.55 295.33 67.6301 292.38 98.3501C292.1 101.31 291.71 104.01 291.18 106.92C288.96 119.13 285.72 132.06 280.8 143.48C278.13 149.68 272.77 153.16 267.86 157.34C263.62 160.95 258.19 165.32 252.39 165.62C243.05 166.1 233.72 160.22 226.06 155.57C221.74 152.95 216.87 149.07 214.21 144.73C211.07 139.6 210.73 132.72 210.23 126.93C209.38 117.13 207.9 107.4 208.39 97.4601C208.5 95.1901 208.68 92.7001 211.27 91.9701" fill="#393D4E"/>
<path d="M211.36 175.61L216.05 158.51C216.05 158.51 226.26 170.92 234.53 176.17C242.81 181.41 248.87 184.72 248.87 184.72C248.87 184.72 262.39 171.75 267.08 166.79C271.77 161.82 274.25 158.51 274.25 158.51L280.59 170.65C280.59 170.65 275.07 199.89 270.93 218.93C266.79 237.96 256.31 332.59 253.27 335.34C250.24 338.1 233.41 336.72 233.41 336.72C233.41 336.72 208.33 180.57 211.36 175.61Z" fill="#EDF4F5"/>
<path d="M236.11 102.189C235.95 101.559 235.7 100.95 235.32 100.38C234.06 98.4995 231.35 98.0495 229.79 99.8695C228.04 101.919 227.44 106.919 229.83 108.839C231.77 110.399 234.17 109.999 235.22 107.999C236.12 106.309 236.59 104.139 236.11 102.189Z" fill="#383B23"/>
<path d="M235.34 84.0895C232.16 83.7595 228.78 85.4395 226.34 87.4095C222.97 90.1195 218.59 96.4195 223.14 96.8295C224.49 96.9495 225.8 94.4695 226.83 93.1795C229.58 89.7295 233.93 90.1495 237.02 87.4895C238.82 85.9295 237.33 84.2895 235.34 84.0895Z" fill="#383B23"/>
<path d="M261.01 103.54C261.26 102.94 261.61 102.37 262.07 101.88C263.6 100.22 266.35 100.19 267.61 102.23C269.02 104.53 268.85 109.56 266.19 111.09C264.03 112.33 261.72 111.57 260.99 109.43C260.36 107.6 260.23 105.38 261.01 103.54Z" fill="#383B23"/>
<path d="M264.69 86.1004C267.88 86.1704 271.03 88.2704 273.2 90.5304C276.2 93.6404 279.75 100.44 275.18 100.28C273.82 100.23 272.84 97.6004 271.98 96.2004C269.68 92.4304 265.32 92.3004 262.59 89.2604C261.01 87.4904 262.69 86.0604 264.69 86.1004Z" fill="#383B23"/>
<path d="M249.46 90.3001C248.92 92.7901 248.87 95.3301 248.74 97.8701C248.63 100.17 248.29 102.43 248.04 104.72C247.8 106.93 247.58 109.19 246.78 111.28C246.41 112.24 245.9 113.2 245.08 113.85C244.3 114.47 243.34 114.79 242.39 115.02C240.47 115.49 235.96 115.46 236.04 118.36C236.08 119.83 237.12 121.32 238.25 122.2C239.44 123.13 240.9 123.56 242.38 123.73C244.22 123.94 246.1 123.73 247.92 123.4C249.59 123.09 251.35 122.73 252.9 122.01C253.28 121.83 252.99 121.33 252.64 121.38C251.22 121.61 249.84 122.1 248.43 122.4C246.85 122.74 245.24 122.98 243.62 122.97C242.13 122.96 240.58 122.72 239.27 121.96C238.06 121.26 236.73 119.83 236.67 118.35C236.62 116.96 238.23 116.55 239.31 116.32C240.78 116 242.29 115.93 243.73 115.5C245.58 114.94 246.79 113.76 247.54 111.99C248.33 110.12 248.62 108.09 248.84 106.09C249.11 103.67 249.47 101.23 249.54 98.8001C249.62 96.0201 249.41 93.1801 249.89 90.4201C249.93 90.1501 249.52 90.0201 249.46 90.3001Z" fill="#CD7F62"/>
<path d="M240.66 144.72C241.56 144.11 242.24 143.12 242.87 142.21C243.51 141.29 244.17 140.39 244.96 139.6C246.36 138.19 248.03 137.1 249.79 136.27C253.23 134.64 257.36 133.95 261.09 134.63C262.18 134.83 263.26 135.16 264.25 135.71C264.73 135.98 265.2 136.29 265.64 136.63C266.18 137.05 266.65 137.62 267.35 137.63C267.77 137.63 268.24 137.22 268.19 136.74C268.07 135.52 266.68 134.69 265.75 134.11C264.81 133.52 263.77 133.05 262.71 132.78C260.66 132.25 258.46 132.23 256.37 132.49C252.18 133 248 134.72 244.79 137.65C243.86 138.5 243.02 139.46 242.34 140.54C241.6 141.73 240.83 142.98 240.22 144.26C240.08 144.54 240.37 144.92 240.66 144.72Z" fill="#F79B79"/>
<path d="M209.25 105.24C209.25 105.24 216.97 88.61 218.28 77.1C219.59 65.58 219.81 62.69 219.81 62.69C219.81 62.69 230.14 65.98 247.99 65.91C265.84 65.84 276.25 65.4 276.25 65.4C276.25 65.4 281.62 82.64 283.71 92.33C285.85 102.25 288.54 109.38 288.54 109.38C288.54 109.38 293.16 89.39 294.85 77.91C297.19 62.04 285.19 56.13 285.19 56.13C285.19 56.13 282.47 46.58 276.71 43.23C270.95 39.88 241.04 34.86 230.65 37.79C220.25 40.72 216.63 52.68 216.63 52.68C216.63 52.68 206.78 50.77 204.31 58.99C198.18 79.48 209.25 105.24 209.25 105.24Z" fill="#393D4E"/>
<path d="M280.74 168.429C280.74 168.429 275.27 184.509 270.25 212.359C259.35 272.899 248.21 359.119 250.39 350.149C250.39 350.149 258.6 347.459 260.81 345.529C263.02 343.6 283.98 268.56 290.6 248.98C295.06 235.77 300.53 219.19 299.98 216.98C299.43 214.77 291.43 203.189 292.81 202.359C294.19 201.529 306.33 204.29 306.33 202.91C306.33 201.529 299.16 179.459 297.5 177.809C295.85 176.159 282.12 167.329 280.74 168.429Z" fill="#954B33"/>
<path d="M212.95 168.43C212.95 168.43 216.42 188.16 221.02 216.09C227.02 252.5 243.36 351.4 243.36 351.4C243.36 351.4 235.08 347.47 232.88 345.54C230.67 343.61 209.71 268.57 203.09 248.99C198.63 235.78 193.16 219.2 193.71 216.99C194.26 214.78 202.26 203.2 200.88 202.37C199.5 201.54 187.36 204.3 187.36 202.92C187.36 201.54 194.53 179.47 196.19 177.82C197.85 176.17 211.57 167.33 212.95 168.43Z" fill="#954B33"/>
<path d="M305.7 284.57C301.29 316.85 301.29 323.19 301.29 323.19C301.29 323.19 259.53 333.67 250.7 335.88C241.87 338.09 205.6 350.98 205.6 350.98L214.67 382.22C214.67 382.22 195.91 382.5 190.95 378.91C185.98 375.32 176.88 367.05 174.12 369.53C171.74 371.67 164.04 376.88 161.96 378.28C161.88 380.4 161.81 382.54 161.73 384.7C161.92 384.72 167.24 385.25 168.06 385.25C168.89 385.25 177.72 389.39 181.3 387.18C184.89 384.97 185.16 383.87 185.16 383.87C185.16 383.87 195.09 389.94 203.92 389.94C212.75 389.94 217.99 389.39 217.99 389.39C217.99 389.39 224.61 412.01 226.82 412.84C229.03 413.67 258.27 405.94 273.44 400.98C288.61 396.01 307.37 392.43 317.3 388.01C327.23 383.6 327.23 383.6 327.23 383.6C327.23 383.6 328.43 382.8 329.96 381.75C326.46 346 322.15 300.2 321.99 290.08C321.84 280.79 321.77 252.22 321.74 228.05C319.57 222.14 318.13 218.36 318.13 218.36C318.13 218.36 310.12 252.3 305.7 284.57Z" fill="#D95D36"/>
<path d="M162.12 341.54C162.12 341.54 167.64 366.51 185.43 366.09C203.22 365.68 225.57 333.81 243.36 308.16C261.15 282.5 271.22 250.92 271.22 250.92L240.05 232.02C240.05 232.02 204.05 322.23 189.15 325.95C174.25 329.67 158.94 330.92 158.94 330.92L162.12 341.54Z" fill="#D95D36"/>
<path d="M208.19 357.4C208.19 357.4 183.91 349.4 172.05 350.23C160.19 351.06 157.43 354.92 156.88 356.71C156.33 358.5 157.57 361.12 157.57 361.12C157.57 361.12 153.43 368.15 155.09 372.57C156.75 376.98 161.43 378.64 162.54 378.91C163.64 379.19 165.16 378.77 165.16 378.77C165.16 378.77 170.95 383.18 175.78 382.22C180.61 381.25 181.99 377.25 181.99 377.25C181.99 377.25 189.44 383.87 197.99 384.42C206.54 384.97 217.44 382.21 217.44 382.21L212.2 358.07L208.19 357.4Z" fill="#F8AA8D"/>
<path d="M157.57 361.121C157.57 361.121 157.28 361.611 156.89 362.411C157 362.221 157.09 362.031 157.2 361.841C158.74 359.291 160.75 356.981 163.02 355.041C163.18 354.901 162.96 354.611 162.79 354.741C160.63 356.321 158.84 358.301 157.32 360.501C157.46 360.891 157.57 361.121 157.57 361.121Z" fill="#BDBEC4"/>
<path d="M172.05 350.231C170.17 350.361 168.55 350.571 167.1 350.841C168.51 353.031 175 362.171 184.6 361.681C191.63 361.321 197.09 357.591 200.1 354.981C191.95 352.691 179.53 349.711 172.05 350.231Z" fill="#BBBCC2"/>
<path d="M165.57 196.57C165.57 196.57 146.54 205.4 139.09 223.33C131.64 241.26 139.92 295.88 149.02 317.95C158.12 340.02 171.64 361.81 185.16 360.16C198.68 358.5 215.37 340.37 223.09 329.88C230.81 319.4 185.16 233.81 183.23 227.47C181.29 221.12 165.57 196.57 165.57 196.57Z" fill="#EA5F33"/>
<path d="M252.44 164.34C253.31 163.63 253.91 162.66 254.76 161.92C255.66 161.14 256.68 160.46 257.74 159.93C258.69 159.45 259.71 159.12 260.76 158.95C261.28 158.86 261.82 158.84 262.35 158.89C262.6 158.91 262.85 158.97 263.1 159.01C263.38 159.06 263.58 159.03 263.86 159.01C264.07 158.99 264.29 158.74 264.14 158.53C263.79 158.06 263.45 157.86 262.85 157.77C262.25 157.68 261.66 157.68 261.06 157.75C259.87 157.89 258.73 158.28 257.66 158.81C256.55 159.36 255.51 160.09 254.56 160.9C254.09 161.3 253.65 161.73 253.29 162.23C252.87 162.81 252.6 163.47 252.1 164C251.85 164.22 252.19 164.54 252.44 164.34Z" fill="#765247"/>
<path d="M239.33 167.78C239.33 167.78 238.19 164.06 234.05 160.33C230.36 157.01 227.22 155.67 225.46 157.43C223.7 159.19 228.15 165.5 230.01 170.36C231.87 175.22 231.87 175.53 231.87 175.53C231.87 175.53 231.87 183.19 231.77 187.53C231.67 191.87 232.08 199.12 233.43 202.01C234.77 204.91 235.6 203.87 235.6 203.87C235.6 203.87 240.36 176.35 240.88 173.56C241.39 170.78 239.33 167.78 239.33 167.78Z" fill="#F8AA8D"/>
<path d="M230.56 209.68C230.56 209.68 233.9 198.3 234.52 190.85C235.15 183.4 235.56 170.16 238.27 165.19C240.98 160.22 250.78 148.43 258.49 147.81C266.2 147.19 269.96 151.74 272.04 155.67C274.12 159.6 273.71 164.98 270.37 163.74C267.03 162.5 263.49 157.53 260.36 157.95C257.23 158.36 253.06 162.09 252.65 164.16C252.23 166.23 252.23 168.92 252.86 168.92C253.49 168.92 262.03 162.09 268.91 164.37C275.79 166.65 274.54 172.96 274.54 172.96C274.54 172.96 277.61 173.25 279.33 176.79C280.89 180 278.5 181.76 278.5 181.76C278.5 181.76 281.84 183.5 281.84 187.45C281.84 190.55 279.65 193.55 276.21 194.17C272.93 194.76 270.37 193.86 270.37 193.86C270.37 193.86 269.74 203.27 264.74 211.96C259.74 220.65 252.65 225.2 252.65 225.2L244.73 233.89L227.01 221.48L230.56 209.68Z" fill="#F8AA8D"/>
<path d="M269.75 171.99C271.06 172.07 272.35 172.33 273.62 172.65C273.86 172.71 274.2 172.79 274.56 172.88C274.58 172.75 274.62 172.44 274.63 172.02C274.4 171.96 274.18 171.89 273.95 171.83C272.6 171.5 271.22 171.32 269.84 171.26C266.99 171.13 263.78 171.19 261.22 172.58C261.04 172.68 261.16 173.01 261.37 172.92C263.95 171.86 266.98 171.83 269.75 171.99Z" fill="#765247"/>
<path d="M278.51 181.74C278.51 181.74 278.85 181.49 279.2 181C278.13 180.42 277.01 179.94 275.84 179.59C272.61 178.62 269.03 178.3 265.68 178.68C265.42 178.71 265.44 179.07 265.69 179.08C268.92 179.23 272.21 179.47 275.32 180.41C276.51 180.77 277.64 181.28 278.72 181.87C278.59 181.79 278.51 181.74 278.51 181.74Z" fill="#765247"/>
<path d="M276.31 188.74C275.7 188.34 275.06 187.98 274.39 187.67C273.07 187.06 271.68 186.74 270.22 186.84C269.96 186.86 269.89 187.09 269.96 187.27C269.98 187.53 269.95 187.78 270 188.04C270.06 188.36 270.15 188.67 270.21 188.99C270.34 189.68 270.42 190.37 270.45 191.07C270.49 192 270.41 192.93 270.4 193.86C270.45 193.88 270.65 193.94 270.97 194.02C271.11 193.03 271.12 192 271.1 191.01C271.09 190.32 271.06 189.62 270.94 188.93C270.89 188.61 270.83 188.28 270.72 187.97C270.65 187.77 270.56 187.63 270.46 187.49C271.71 187.63 272.94 188.05 274.05 188.62C274.63 188.91 275.19 189.25 275.73 189.62C276.22 189.95 276.84 190.54 277.47 190.5C277.66 190.49 277.76 190.34 277.73 190.16C277.61 189.51 276.81 189.07 276.31 188.74Z" fill="#765247"/>
<path d="M266 151.64C270.76 154.95 272.64 159.98 273.2 161.86C273.53 160.17 273.13 157.73 272.05 155.68C269.97 151.75 266.21 147.2 258.5 147.82C250.79 148.44 240.99 160.23 238.28 165.2C237.04 167.47 236.29 171.47 235.77 175.85C236.83 175.36 238.04 169.33 239.33 166.13C240.79 162.51 244.65 159.1 250.17 154.44C255.68 149.78 260.06 147.5 266 151.64Z" fill="#FABEA8"/>
<path d="M265.69 165.3C269.53 165.65 272.55 167.55 274.17 169.11C273.54 167.35 272.11 165.42 268.92 164.37C262.04 162.09 253.49 168.92 252.87 168.92C252.83 168.92 252.8 168.91 252.77 168.89C252.82 169.04 252.91 169.19 253.08 169.33C253.91 170.05 260.06 164.78 265.69 165.3Z" fill="#FAB9A1"/>
<path d="M176.6 242.64L193.43 285.4L201.71 276.02C201.71 276.02 190.95 264.16 186.26 256.16C181.57 248.16 176.6 242.64 176.6 242.64Z" fill="#D95D36"/>
<path d="M165.57 294.5C165.57 294.5 213.29 232.43 219.64 223.33C225.98 214.23 229.3 208.99 229.3 208.99C229.3 208.99 244.75 217.82 255.51 228.02C266.27 238.23 271.23 250.92 271.23 250.92C271.23 250.92 245.78 298.99 230.33 319.95C214.88 340.92 206.4 349.61 197.85 354.29C189.3 358.98 174.95 342.5 168.61 328.15C162.26 313.81 165.57 294.5 165.57 294.5Z" fill="#EA5F33"/>
<path d="M188.19 271.88C202.39 256.06 227.18 222.37 234.59 212.22C231.4 210.19 229.29 208.99 229.29 208.99C229.29 208.99 225.98 214.23 219.63 223.33C213.29 232.43 165.56 294.5 165.56 294.5C165.56 294.5 165.54 294.6 165.51 294.78C169.02 291.72 176.35 285.08 188.19 271.88Z" fill="#C54A23"/>
<path d="M314.81 187.19C314.81 187.19 339.09 195.74 345.71 207.05C352.33 218.36 354.81 265.53 356.47 281.81C358.13 298.09 360.88 339.74 355.37 352.15C349.85 364.56 343.78 367.87 338.54 371.18C333.3 374.49 325.16 378.21 325.16 378.21C325.16 378.21 310.13 343.04 306.54 337.24C302.95 331.45 299.64 325.93 299.64 325.93L308.19 324.83C308.19 324.83 311.5 267.45 313.43 251.17C315.36 234.89 318.12 218.34 318.12 218.34L314.81 187.19Z" fill="#EA5F33"/>
<path d="M205.5 350.78C205.5 350.78 209.02 366.92 212.12 376.85C215.22 386.78 223.09 408.3 223.09 408.3C223.09 408.3 248.33 405.4 275.64 396.71C302.95 388.02 324.19 379.33 330.4 375.74C335.77 372.64 326.95 346.22 325.3 341.88C323.64 337.54 309.58 324.71 309.58 324.71C309.58 324.71 269.65 331.74 251.24 337.33C232.83 342.92 205.5 350.78 205.5 350.78Z" fill="#EA5F33"/>
<path d="M309.32 324.75C305.99 325.34 268.8 331.99 251.22 337.33C232.81 342.92 205.5 350.78 205.5 350.78C205.5 350.78 206.13 353.68 207.1 357.78C221.75 353.76 293.13 334.13 301.29 330.92C306.91 328.7 308.74 326.28 309.32 324.75Z" fill="#C54A23"/>
<path d="M223.08 329.88C223.28 329.61 223.44 329.28 223.57 328.91C225.67 326.2 227.91 323.23 230.33 319.95C245.78 298.98 271.23 250.92 271.23 250.92C271.23 250.92 267.82 242.23 260.55 233.45C248.41 255.04 193.39 350 171.36 337.27C152.15 326.17 140.54 272.82 136.27 249.23C136.97 272.62 142.8 302.88 149.02 317.96C158.12 340.03 171.64 361.82 185.16 360.17C198.67 358.5 215.36 340.37 223.08 329.88Z" fill="#DE562B"/>
<path d="M330.39 375.74C330.46 375.7 330.52 375.64 330.59 375.59C333.14 374.3 336.13 372.7 338.53 371.19C343.77 367.88 349.84 364.57 355.36 352.16C360.88 339.75 358.12 298.09 356.46 281.82C355.64 273.79 354.62 258.24 353.01 243.19C353.25 252.63 353.43 262.94 353.43 272.72C353.43 302.51 349.57 341.69 329.15 356.03C311.38 368.52 236.36 387.27 217.21 391.92C220.18 400.37 223.08 408.31 223.08 408.31C223.08 408.31 248.32 405.41 275.63 396.72C302.95 388.02 324.19 379.33 330.39 375.74Z" fill="#E9E9EB"/>
<path d="M159.896 75.1727C156.776 72.9727 151.506 72.4527 149.796 76.6627C148.216 80.5727 149.466 84.9327 153.706 85.5427C159.206 86.3327 165.246 80.5227 159.896 75.1727Z" fill="#CC571D"/>
<path d="M122.446 13.9324C120.466 27.1024 125.346 41.5624 131.806 53.0324C133.826 56.6224 136.146 60.1424 138.476 63.4824C139.386 64.7824 141.546 67.7524 143.136 68.2424C144.866 68.7724 147.956 67.2724 149.656 66.6624C151.446 66.0224 155.316 65.2524 156.486 63.6724C157.446 62.3724 156.806 60.6824 156.336 59.2524C155.266 56.0324 153.906 52.8824 152.956 49.6024C151.066 43.0524 149.666 36.3324 147.906 29.7324C146.676 25.1124 145.296 20.4724 144.276 15.7924C143.646 12.9324 143.756 9.89244 143.116 7.13244C139.416 6.06244 125.136 11.7624 122.446 13.9324Z" fill="#CC571D"/>
<path d="M333.328 81.4849C331.338 78.2249 326.708 75.6549 323.468 78.8449C320.468 81.8049 319.878 86.3049 323.528 88.5449C328.258 91.4649 336.108 88.5249 333.328 81.4849Z" fill="#CC571D"/>
<path d="M329.498 51.4552C329.208 54.5952 324.738 69.0452 324.738 70.2852C324.738 71.1852 331.468 73.0652 335.178 74.0252C336.388 74.3352 337.578 73.4852 337.668 72.2452C337.958 68.1352 339.208 61.0852 343.668 62.0052C349.668 63.2452 367.978 72.1452 377.288 57.6652C386.598 43.1852 379.148 25.1852 356.598 17.5252C334.048 9.86519 321.008 22.0752 321.008 22.0752C321.008 22.0752 323.038 30.7352 325.558 32.6252C328.868 35.1052 339.418 24.1452 354.108 30.5552C368.798 36.9652 365.468 48.1952 358.138 50.7252C349.468 53.7252 330.328 42.5552 329.498 51.4552Z" fill="#CC571D"/>
</g>
<defs>
<clipPath id="clip0_75_353">
<rect width="500" height="358" fill="white"/>
</clipPath>
</defs>
</svg>
