<?xml version="1.0" encoding="UTF-8"?>
<!DOCTYPE svg PUBLIC "-//W3C//DTD SVG 1.1//EN" "http://www.w3.org/Graphics/SVG/1.1/DTD/svg11.dtd">
<!-- Creator: CorelDRAW 2018 (64-Bit) -->
<svg xmlns="http://www.w3.org/2000/svg" xml:space="preserve" width="300px" height="40px" version="1.1" style="shape-rendering:geometricPrecision; text-rendering:geometricPrecision; image-rendering:optimizeQuality; fill-rule:evenodd; clip-rule:evenodd"
viewBox="0 0 805.58 107.42"
 xmlns:xlink="http://www.w3.org/1999/xlink">
 <defs>
  <style type="text/css">
   <![CDATA[
    .str0 {stroke:#FB5F2E;stroke-width:2.68;stroke-miterlimit:22.9256}
    .fil2 {fill:#FB5F2E}
    .fil1 {fill:#1A1A1A;fill-rule:nonzero}
    .fil0 {fill:#FB5F2E;fill-rule:nonzero}
   ]]>
  </style>
 </defs>
 <g id="Layer_x0020_1">
  <metadata id="CorelCorpID_0Corel-Layer"/>
  <g id="_1790688465312">
   <path class="fil0" d="M34.54 53.29l53.72 0 0 40.86c-4.71,4.94 -10.17,8.38 -16.39,10.33 -6.21,1.96 -12.93,2.94 -20.15,2.94 -7.11,0 -13.8,-1.42 -20.07,-4.25 -6.26,-2.82 -11.75,-6.65 -16.46,-11.49 -4.71,-4.83 -8.43,-10.48 -11.13,-16.96 -2.71,-6.47 -4.06,-13.41 -4.06,-20.82 0,-7.4 1.35,-14.36 4.06,-20.89 2.7,-6.53 6.42,-12.24 11.13,-17.12 4.71,-4.88 10.2,-8.74 16.46,-11.56 6.27,-2.83 12.96,-4.24 20.07,-4.24 7.32,0 14.14,1.46 20.45,4.39 6.32,2.93 11.88,6.97 16.69,12.1l-13.53 12.19c-3.01,-3.29 -6.49,-5.91 -10.45,-7.87 -3.96,-1.95 -8.34,-2.93 -13.16,-2.93 -4.51,0 -8.74,0.95 -12.7,2.86 -3.96,1.9 -7.44,4.47 -10.45,7.71 -3.01,3.24 -5.36,7.01 -7.07,11.33 -1.7,4.32 -2.56,8.94 -2.56,13.88 0,4.93 0.86,9.59 2.56,13.95 1.71,4.37 4.06,8.18 7.07,11.42 3.01,3.23 6.49,5.78 10.45,7.63 3.96,1.85 8.19,2.78 12.7,2.78 3.51,0 6.8,-0.29 9.85,-0.85 3.06,-0.57 6.04,-1.57 8.95,-3.01l0 -15.57 -35.98 -16.81z"/>
   <path class="fil0" d="M163.18 94.72c-3.61,3.81 -7.82,6.76 -12.63,8.87 -4.82,2.1 -10.03,3.16 -15.64,3.16 -5.31,0 -10.32,-1.06 -15.04,-3.16 -4.71,-2.11 -8.82,-4.99 -12.32,-8.64 -3.51,-3.65 -6.3,-7.94 -8.35,-12.88 -2.05,-4.93 -3.08,-10.17 -3.08,-15.72 0,-5.55 1.03,-10.8 3.08,-15.73 2.05,-4.94 4.84,-9.23 8.35,-12.88 3.5,-3.65 7.61,-6.53 12.32,-8.63 4.72,-2.11 9.73,-3.17 15.04,-3.17 3.91,0 7.99,0.75 12.25,2.24 4.26,1.49 8.2,3.98 11.81,7.48 3.61,3.49 6.59,8.15 8.94,13.95 2.36,5.81 3.54,13.04 3.54,21.67l-57.44 0c0.5,2.98 1.43,5.63 2.78,7.94 1.35,2.32 2.98,4.32 4.89,6.02 1.9,1.69 3.98,2.98 6.24,3.85 2.25,0.88 4.59,1.31 6.99,1.31 3.31,0 6.29,-0.62 8.95,-1.85 2.65,-1.23 5.23,-3.19 7.74,-5.86l11.58 12.03zm-28.27 -52.43c-4.51,0 -8.57,1.44 -12.18,4.32 -3.61,2.88 -6.16,6.48 -7.67,10.79l38.34 0c-1.3,-4.93 -3.65,-8.68 -7.06,-11.25 -3.41,-2.58 -7.22,-3.86 -11.43,-3.86z"/>
   <path class="fil0" d="M195.74 72.38c0,4.62 0.15,8.3 0.45,10.97 0.3,2.68 0.9,4.71 1.81,6.12 2.11,3.27 6.62,2.33 10.32,2.42l1.09 13.74c-2.2,1.48 -12.55,0.59 -15.7,-0.2 -2.46,-0.62 -4.84,-1.85 -7.14,-3.7 -2.31,-1.85 -4.26,-4.45 -5.87,-7.79 -1.6,-3.34 -2.4,-7.74 -2.4,-13.18 0,-15.74 0,-31.45 0,-47.15 0,-1.77 0,-3.53 0,-5.3 0,-9.35 0,-18.7 0,-28.05l17.44 0 -0.05 27 23 -0.05 -22.95 15.46 0 29.71z"/>
   <path class="fil1" d="M446.99 27.24c3.71,0 6.96,0.43 9.77,1.29 2.81,0.86 5.21,1.85 7.22,2.97 2.3,1.21 4.31,2.58 6.01,4.11l-11.88 11.87c-0.7,-0.72 -1.6,-1.37 -2.7,-1.98 -0.91,-0.51 -2.08,-0.99 -3.54,-1.45 -1.45,-0.46 -3.18,-0.68 -5.18,-0.68 -2.21,0 -3.96,0.48 -5.27,1.44 -1.3,0.97 -1.95,2.31 -1.95,4.03 0,1.12 0.4,2.16 1.21,3.12 0.79,0.97 1.87,1.91 3.18,2.82 1.3,0.91 2.78,1.85 4.46,2.81 1.65,0.97 3.33,1.96 5.05,2.97 2.21,1.32 4.42,2.74 6.65,4.26 2.2,1.52 4.23,3.3 6.03,5.33 1.81,2.03 3.29,4.31 4.47,6.84 1.15,2.54 1.73,5.43 1.73,8.67 0,3.25 -0.68,6.19 -2.03,8.83 -1.36,2.64 -3.21,4.87 -5.52,6.7 -2.3,1.82 -4.99,3.24 -8.07,4.26 -3.05,1.01 -6.26,1.52 -9.57,1.52 -3.5,0 -6.86,-0.53 -10.02,-1.6 -3.16,-1.07 -5.91,-2.31 -8.22,-3.73 -2.71,-1.62 -5.24,-3.45 -7.54,-5.47l11.57 -11.42c1.11,1.12 2.41,2.13 3.91,3.05 1.21,0.81 2.68,1.52 4.44,2.13 1.75,0.6 3.63,0.91 5.63,0.91 2.21,0 4.09,-0.51 5.65,-1.52 1.55,-1.02 2.32,-2.54 2.32,-4.57 0,-1.32 -0.3,-2.51 -0.9,-3.57 -0.6,-1.07 -1.4,-2.03 -2.4,-2.89 -1.01,-0.87 -2.18,-1.7 -3.54,-2.51 -1.35,-0.82 -2.73,-1.68 -4.13,-2.59 -2.1,-1.32 -4.44,-2.74 -6.99,-4.26 -2.56,-1.52 -4.91,-3.3 -7.07,-5.33 -2.15,-2.03 -3.98,-4.43 -5.49,-7.23 -1.5,-2.78 -2.25,-6.16 -2.25,-10.11 0,-2.03 0.53,-4.16 1.58,-6.39 1.05,-2.24 2.63,-4.29 4.73,-6.17 2.11,-1.87 4.71,-3.42 7.82,-4.64 3.11,-1.21 6.72,-1.82 10.83,-1.82z"/>
   <polygon class="fil1" points="472.94,27.14 489.3,27.19 505.13,75.81 523.23,27.04 543.62,75.81 555.29,27.41 571.55,27.22 548.88,106.96 537.6,106.96 523.33,68.02 510.99,106.96 499.11,106.96 "/>
   <path class="fil1" d="M636.16 94.94c-3.61,3.8 -7.82,6.76 -12.63,8.86 -4.81,2.11 -10.03,3.16 -15.64,3.16 -5.31,0 -10.32,-1.05 -15.04,-3.16 -4.71,-2.1 -8.82,-4.98 -12.32,-8.63 -3.51,-3.65 -6.29,-7.94 -8.35,-12.88 -2.05,-4.93 -3.08,-10.17 -3.08,-15.72 0,-5.56 1.03,-10.8 3.08,-15.73 2.06,-4.94 4.84,-9.23 8.35,-12.88 3.5,-3.65 7.61,-6.53 12.32,-8.64 4.72,-2.1 9.73,-3.15 15.04,-3.15 3.91,0 7.99,0.74 12.26,2.23 4.26,1.49 8.19,3.99 11.8,7.48 3.61,3.5 6.59,8.14 8.94,13.96 2.36,5.8 3.54,13.02 3.54,21.66l-57.44 0c0.5,2.98 1.43,5.63 2.78,7.94 1.36,2.31 2.99,4.32 4.89,6.02 1.91,1.69 3.99,2.98 6.24,3.85 2.26,0.87 4.58,1.31 6.99,1.31 3.31,0 6.29,-0.62 8.95,-1.85 2.65,-1.23 5.23,-3.19 7.74,-5.86l11.58 12.03zm-28.27 -52.43c-4.51,0 -8.57,1.44 -12.18,4.32 -3.61,2.88 -6.16,6.47 -7.67,10.79l38.34 0c-1.3,-4.93 -3.66,-8.69 -7.06,-11.25 -3.41,-2.58 -7.22,-3.86 -11.43,-3.86z"/>
   <path class="fil1" d="M694.65 27.98l0 20.27c-0.15,0 -0.3,-0.16 -0.45,-0.16 -1.95,-0.64 -3.91,-0.96 -5.86,-0.96 -5.26,0 -10.38,2.08 -13.84,6.07 -1.8,2.07 -3,4.6 -3.75,7.31 -0.76,2.56 -0.76,5.11 -0.76,7.83l0 38.62 -18.04 0 0.03 -79.11 18.04 0 -0.03 12.74c0,0 7.97,-13.57 24.66,-12.61z"/>
   <path class="fil1" d="M286.39 0l-54.18 106.96 24.51 0 6 -11.84 47.37 0 6.01 11.84 24.47 0 -54.18 -106.96zm0 48.43l23.7 46.69 -47.37 0 23.67 -46.69z"/>
   <path class="fil2 str0" d="M252.34 51.62c11.53,6.05 23.07,12.1 34.6,18.14 19.99,-17.86 44.66,-39.74 64.65,-57.6l-63.88 81.1 -35.37 -41.64z"/>
   <path class="fil1" d="M399.28 106.96l0 -33.25c0,-5.72 0.29,-13.52 -3.58,-18.09 -3.45,-4.12 -8.62,-6.03 -13.93,-5.74 -5.89,0.15 -10.34,1.92 -13.5,5.74 -4.02,4.57 -3.87,11.49 -3.87,17.35l0 12.96c0,7.04 0,13.97 0,21.03l-17.23 0 0 -79.07 17.23 0 0 17.89c0,-0.88 8.18,-13.1 25.12,-11.92 12.06,0.88 20.97,8.09 24.7,19.7 2.73,8.1 2.73,16.77 2.73,25.3l0 28.1 -17.67 0z"/>
   <path class="fil1" d="M726.56 27.23c8.22,0 16.76,2.79 23.01,8.37l-11.88 11.87c-0.7,-0.71 -1.61,-1.37 -2.71,-1.98 -0.9,-0.51 -2.08,-0.99 -3.53,-1.45 -1.45,-0.45 -3.18,-0.68 -5.19,-0.68 -2.2,0 -3.96,0.48 -5.26,1.44 -1.3,0.97 -1.95,2.31 -1.95,4.04 0,1.11 0.39,2.15 1.2,3.12 0.8,0.96 1.88,1.9 3.18,2.81 1.3,0.91 2.78,1.85 4.46,2.82 1.65,0.96 3.33,1.95 5.06,2.97 2.21,1.31 4.41,2.74 6.64,4.26 2.21,1.52 4.24,3.29 6.04,5.32 1.81,2.03 3.29,4.31 4.47,6.85 1.15,2.53 1.72,5.43 1.72,8.67 0,3.25 -0.68,6.19 -2.03,8.83 -1.35,2.64 -3.21,4.87 -5.51,6.69 -2.3,1.83 -4.99,3.25 -8.07,4.27 -3.06,1.01 -6.26,1.51 -9.57,1.51 -3.51,0 -6.87,-0.52 -10.02,-1.59 -3.16,-1.07 -5.92,-2.31 -8.22,-3.73 -2.71,-1.62 -5.24,-3.45 -7.55,-5.48l11.58 -11.41c1.1,1.11 2.4,2.13 3.91,3.04 1.2,0.81 2.68,1.52 4.43,2.13 1.76,0.61 3.64,0.92 5.64,0.92 2.21,0 4.08,-0.51 5.64,-1.53 1.56,-1.01 2.33,-2.53 2.33,-4.56 0,-1.32 -0.3,-2.51 -0.9,-3.58 -0.6,-1.06 -1.41,-2.02 -2.41,-2.89 -1,-0.86 -2.18,-1.7 -3.53,-2.51 -1.35,-0.81 -2.73,-1.67 -4.14,-2.59 -2.1,-1.32 -4.43,-2.73 -6.99,-4.26 -2.55,-1.52 -4.91,-3.29 -7.06,-5.32 -2.16,-2.03 -3.99,-4.44 -5.49,-7.23 -1.5,-2.79 -2.26,-6.16 -2.26,-10.12 0,-2.03 0.53,-4.16 1.58,-6.39 1.05,-2.23 2.63,-4.28 4.74,-6.16 2.1,-1.88 4.71,-3.43 7.82,-4.65 3.11,-1.21 6.71,-1.82 10.82,-1.82z"/>
   <path class="fil1" d="M780.32 27.24c3.71,0 6.97,0.43 9.78,1.29 2.8,0.86 5.21,1.85 7.21,2.97 2.31,1.21 4.31,2.58 6.02,4.11l-11.88 11.87c-0.7,-0.72 -1.6,-1.37 -2.71,-1.98 -0.9,-0.51 -2.08,-0.99 -3.53,-1.45 -1.45,-0.46 -3.18,-0.68 -5.18,-0.68 -2.21,0 -3.97,0.48 -5.27,1.44 -1.3,0.97 -1.95,2.31 -1.95,4.03 0,1.12 0.4,2.16 1.2,3.12 0.8,0.97 1.88,1.91 3.18,2.82 1.31,0.91 2.78,1.85 4.46,2.81 1.66,0.97 3.34,1.96 5.06,2.97 2.21,1.32 4.42,2.74 6.64,4.26 2.21,1.52 4.24,3.3 6.04,5.33 1.81,2.03 3.29,4.31 4.47,6.84 1.14,2.54 1.72,5.43 1.72,8.67 0,3.25 -0.67,6.19 -2.02,8.83 -1.36,2.64 -3.21,4.87 -5.52,6.7 -2.31,1.82 -4.99,3.24 -8.07,4.26 -3.06,1.01 -6.26,1.52 -9.57,1.52 -3.51,0 -6.86,-0.53 -10.02,-1.6 -3.16,-1.07 -5.92,-2.31 -8.22,-3.73 -2.71,-1.62 -5.24,-3.45 -7.55,-5.47l11.58 -11.42c1.1,1.12 2.4,2.13 3.91,3.05 1.2,0.81 2.68,1.52 4.44,2.13 1.75,0.6 3.63,0.91 5.63,0.91 2.21,0 4.09,-0.51 5.64,-1.52 1.55,-1.02 2.33,-2.54 2.33,-4.57 0,-1.32 -0.3,-2.51 -0.9,-3.57 -0.6,-1.07 -1.4,-2.03 -2.4,-2.89 -1.01,-0.87 -2.19,-1.7 -3.54,-2.51 -1.35,-0.82 -2.73,-1.68 -4.13,-2.59 -2.11,-1.32 -4.44,-2.74 -7,-4.26 -2.55,-1.52 -4.91,-3.3 -7.06,-5.33 -2.16,-2.03 -3.99,-4.43 -5.49,-7.23 -1.5,-2.78 -2.25,-6.16 -2.25,-10.11 0,-2.03 0.52,-4.16 1.57,-6.39 1.06,-2.24 2.64,-4.29 4.74,-6.17 2.11,-1.87 4.71,-3.42 7.82,-4.64 3.11,-1.21 6.71,-1.82 10.82,-1.82z"/>
  </g>
 </g>
</svg>
